<?xml version="1.0" encoding="utf-8"?>
<!-- Generator: Adobe Illustrator 24.0.2, SVG Export Plug-In . SVG Version: 6.00 Build 0)  -->
<svg version="1.1" id="Layer_1" xmlns="http://www.w3.org/2000/svg" xmlns:xlink="http://www.w3.org/1999/xlink" x="0px" y="0px"
	 width="7px" height="7px" viewBox="0 0 7 7" style="enable-background:new 0 0 7 7;" xml:space="preserve">
<style type="text/css">
	.st0{fill:#333333;}
</style>
<g>
	<path class="st0" d="M4.1,6.4L3.8,6.8c0,0-0.1,0.1-0.2,0.1c-0.1,0-0.1,0-0.2-0.1L0.3,3.7c0,0-0.1-0.1-0.1-0.2s0-0.1,0.1-0.2
		l3.1-3.1c0,0,0.1-0.1,0.2-0.1c0.1,0,0.1,0,0.2,0.1l0.3,0.3c0,0,0.1,0.1,0.1,0.2s0,0.1-0.1,0.2L1.5,3.5l2.6,2.6c0,0,0.1,0.1,0.1,0.2
		S4.1,6.4,4.1,6.4z M6.7,6.4L6.3,6.8c0,0-0.1,0.1-0.2,0.1c-0.1,0-0.1,0-0.2-0.1L2.9,3.7c0,0-0.1-0.1-0.1-0.2s0-0.1,0.1-0.2L6,0.2
		c0,0,0.1-0.1,0.2-0.1c0.1,0,0.1,0,0.2,0.1l0.3,0.3c0,0,0.1,0.1,0.1,0.2s0,0.1-0.1,0.2L4,3.5l2.6,2.6c0,0,0.1,0.1,0.1,0.2
		S6.7,6.4,6.7,6.4z"/>
</g>
</svg>
