<?xml version="1.0" encoding="utf-8"?>
<!-- Generator: Adobe Illustrator 24.0.2, SVG Export Plug-In . SVG Version: 6.00 Build 0)  -->
<svg version="1.1" id="Layer_1" xmlns="http://www.w3.org/2000/svg" xmlns:xlink="http://www.w3.org/1999/xlink" x="0px" y="0px"
	 width="25px" height="25px" viewBox="0 0 25 25" style="enable-background:new 0 0 25 25;" xml:space="preserve">
<style type="text/css">
	.st0{fill:#4077D1;}
</style>
<g>
	<path class="st0" d="M18.7,2c1.8,1.1,3.3,2.5,4.4,4.4c1.1,1.9,1.7,3.9,1.7,6.2c0,2.2-0.6,4.3-1.7,6.2c-1.1,1.8-2.5,3.3-4.4,4.4
		c-1.9,1.1-3.9,1.7-6.2,1.7S8.2,24.1,6.3,23c-1.8-1.1-3.3-2.5-4.4-4.4c-1.1-1.9-1.7-3.9-1.7-6.2c0-2.2,0.6-4.3,1.7-6.2
		C3.1,4.5,4.5,3.1,6.3,2c1.9-1.1,3.9-1.7,6.2-1.7S16.8,0.9,18.7,2z M7.3,3.6C5.7,4.5,4.5,5.7,3.6,7.3c-0.9,1.6-1.4,3.3-1.4,5.2
		s0.5,3.6,1.4,5.2c0.9,1.5,2.1,2.8,3.7,3.7c1.6,0.9,3.3,1.4,5.2,1.4s3.6-0.5,5.2-1.4c1.5-0.9,2.8-2.1,3.7-3.7
		c0.9-1.6,1.4-3.3,1.4-5.2s-0.5-3.6-1.4-5.2c-0.9-1.5-2.1-2.8-3.7-3.7c-1.6-0.9-3.3-1.4-5.2-1.4S8.9,2.7,7.3,3.6z M13.4,6.9v1.9
		h-1.9V6.9H13.4z M13.4,10.6v7.5h-1.9v-7.5H13.4z"/>
</g>
</svg>
