<?xml version="1.0" encoding="utf-8"?>
<!-- Generator: Adobe Illustrator 24.0.2, SVG Export Plug-In . SVG Version: 6.00 Build 0)  -->
<svg version="1.1" id="Layer_1" xmlns="http://www.w3.org/2000/svg" xmlns:xlink="http://www.w3.org/1999/xlink" x="0px" y="0px"
	 width="20px" height="20px" viewBox="0 0 20 20" style="enable-background:new 0 0 20 20;" xml:space="preserve">
<style type="text/css">
	.st0{fill:#5E5E5E;}
</style>
<g>
	<g>
		<path class="st0" d="M14.6,2.2v4.6h1.3c0.5,0,1,0.2,1.4,0.6c0.4,0.4,0.6,0.8,0.6,1.4v6.5h-3.3v2.6H5.4v-2.6H2.2V8.7
			c0-0.5,0.2-1,0.6-1.4c0.4-0.4,0.8-0.6,1.4-0.6h1.3V2.2H14.6z M3.6,8.2C3.5,8.3,3.5,8.5,3.5,8.7v5.2h2v-2.6h9.2v2.6h2V8.7
			c0-0.2-0.1-0.3-0.2-0.5C16.2,8.1,16.1,8,15.9,8H4.1C3.9,8,3.8,8.1,3.6,8.2z M5.2,8.9C5.4,9,5.4,9.2,5.4,9.3S5.4,9.7,5.2,9.8
			C5.1,9.9,4.9,10,4.8,10c-0.2,0-0.3-0.1-0.5-0.2C4.2,9.7,4.1,9.5,4.1,9.3S4.2,9,4.3,8.9c0.1-0.1,0.3-0.2,0.5-0.2
			C4.9,8.7,5.1,8.8,5.2,8.9z M6.7,6.7h6.5V3.5H6.7V6.7z M6.7,16.5h6.5v-3.9H6.7V16.5z"/>
	</g>
</g>
</svg>
