<?xml version="1.0" encoding="utf-8"?>
<!-- Generator: Adobe Illustrator 24.0.2, SVG Export Plug-In . SVG Version: 6.00 Build 0)  -->
<svg version="1.1" id="Layer_1" xmlns="http://www.w3.org/2000/svg" xmlns:xlink="http://www.w3.org/1999/xlink" x="0px" y="0px"
	 width="16px" height="16px" viewBox="0 0 16 16" style="enable-background:new 0 0 16 16;" xml:space="preserve">
<style type="text/css">
	.st0{fill:#FFFFFF;}
</style>
<g>
	<path class="st0" d="M1.2,3.3c0.5-0.9,1.2-1.6,2.1-2.1c0.9-0.5,1.9-0.8,3-0.8s2.1,0.3,3,0.8c0.9,0.5,1.6,1.2,2.1,2.1
		c0.5,0.9,0.8,1.9,0.8,3c0,0.7-0.1,1.4-0.4,2c-0.2,0.6-0.6,1.2-1,1.7l4.7,4.7l-0.9,0.9L10,10.9c-0.5,0.4-1.1,0.7-1.7,1
		c-0.6,0.2-1.3,0.4-2,0.4c-1.1,0-2.1-0.3-3-0.8c-0.9-0.5-1.6-1.2-2.1-2.1c-0.5-0.9-0.8-1.9-0.8-3S0.6,4.2,1.2,3.3z M2.2,8.7
		c0.4,0.7,1,1.3,1.7,1.7c0.7,0.4,1.5,0.6,2.4,0.6c0.9,0,1.7-0.2,2.4-0.6c0.7-0.4,1.3-1,1.7-1.7c0.4-0.7,0.6-1.5,0.6-2.4
		c0-0.9-0.2-1.7-0.6-2.4c-0.4-0.7-1-1.3-1.7-1.7C8,1.8,7.2,1.6,6.3,1.6c-0.9,0-1.7,0.2-2.4,0.6c-0.7,0.4-1.3,1-1.7,1.7
		C1.8,4.6,1.6,5.4,1.6,6.3C1.6,7.2,1.8,8,2.2,8.7z"/>
</g>
</svg>
