<?xml version="1.0" encoding="utf-8"?>
<!-- Generator: Adobe Illustrator 24.0.2, SVG Export Plug-In . SVG Version: 6.00 Build 0)  -->
<svg version="1.1" id="Layer_1" xmlns="http://www.w3.org/2000/svg" xmlns:xlink="http://www.w3.org/1999/xlink" x="0px" y="0px"
	 width="10px" height="6px" viewBox="0 0 10 6" style="enable-background:new 0 0 10 6;" xml:space="preserve">
<style type="text/css">
	.st0{fill:#2C74EB;}
</style>
<g>
	<path class="st0" d="M9.9,5.3L9.4,5.8C9.3,5.9,9.3,5.9,9.2,5.9c-0.1,0-0.2,0-0.2-0.1L5,1.9L1.1,5.8C1,5.9,0.9,5.9,0.8,5.9
		s-0.2,0-0.2-0.1L0.1,5.3C0,5.3,0,5.2,0,5.1C0,5,0,4.9,0.1,4.9l4.7-4.7C4.8,0.1,4.9,0.1,5,0.1s0.2,0,0.2,0.1l4.7,4.7
		C10,4.9,10,5,10,5.1C10,5.2,10,5.3,9.9,5.3z"/>
</g>
</svg>
