<?xml version="1.0" encoding="utf-8"?>
<!-- Generator: Adobe Illustrator 24.0.2, SVG Export Plug-In . SVG Version: 6.00 Build 0)  -->
<svg version="1.1" id="Layer_1" xmlns="http://www.w3.org/2000/svg" xmlns:xlink="http://www.w3.org/1999/xlink" x="0px" y="0px"
	 width="20px" height="20px" viewBox="0 0 20 20" style="enable-background:new 0 0 20 20;" xml:space="preserve">
<style type="text/css">
	.st0{fill:#5E5E5E;}
</style>
<path class="st0" d="M19.8,9.3h-2.6c-0.3-3.4-3.1-6.2-6.5-6.5V0.2H9.4v2.6C5.9,3.1,3.2,5.8,2.9,9.3H0.3v1.4h2.6
	c0.3,3.4,3.1,6.2,6.5,6.5v2.6h1.4v-2.6c3.4-0.3,6.2-3.1,6.5-6.5h2.6V9.3z M10.7,15.8v-2.6H9.4v2.6c-2.7-0.3-4.8-2.5-5.1-5.1h2.6V9.3
	H4.2c0.3-2.7,2.5-4.8,5.1-5.1v2.6h1.4V4.1c2.7,0.3,4.8,2.5,5.1,5.1h-2.6v1.4h2.6C15.6,13.3,13.4,15.5,10.7,15.8z"/>
</svg>
