<?xml version="1.0" encoding="utf-8"?>
<!-- Generator: Adobe Illustrator 24.0.2, SVG Export Plug-In . SVG Version: 6.00 Build 0)  -->
<svg version="1.1" id="Layer_1" xmlns="http://www.w3.org/2000/svg" xmlns:xlink="http://www.w3.org/1999/xlink" x="0px" y="0px"
	 width="7px" height="7px" viewBox="0 0 7 7" style="enable-background:new 0 0 7 7;" xml:space="preserve">
<style type="text/css">
	.st0{fill:#2C74EB;}
</style>
<g>
	<path class="st0" d="M4.1,3.7L1,6.8c0,0-0.1,0.1-0.2,0.1c-0.1,0-0.1,0-0.2-0.1L0.3,6.4c0,0-0.1-0.1-0.1-0.2s0-0.1,0.1-0.2L3,3.5
		L0.3,0.9c0,0-0.1-0.1-0.1-0.2s0-0.1,0.1-0.2l0.3-0.3c0,0,0.1-0.1,0.2-0.1c0.1,0,0.1,0,0.2,0.1l3.1,3.1c0,0,0.1,0.1,0.1,0.2
		S4.1,3.6,4.1,3.7z M6.7,3.7L3.5,6.8c0,0-0.1,0.1-0.2,0.1c-0.1,0-0.1,0-0.2-0.1L2.9,6.4c0,0-0.1-0.1-0.1-0.2s0-0.1,0.1-0.2l2.6-2.6
		L2.9,0.9c0,0-0.1-0.1-0.1-0.2s0-0.1,0.1-0.2l0.3-0.3c0,0,0.1-0.1,0.2-0.1c0.1,0,0.1,0,0.2,0.1l3.1,3.1c0,0,0.1,0.1,0.1,0.2
		S6.7,3.6,6.7,3.7z"/>
</g>
</svg>
