<?xml version="1.0" encoding="utf-8"?>
<!-- Generator: Adobe Illustrator 24.0.2, SVG Export Plug-In . SVG Version: 6.00 Build 0)  -->
<svg version="1.1" id="Layer_1" xmlns="http://www.w3.org/2000/svg" xmlns:xlink="http://www.w3.org/1999/xlink" x="0px" y="0px"
	 width="7px" height="7px" viewBox="0 0 7 7" style="enable-background:new 0 0 7 7;" xml:space="preserve">
<style type="text/css">
	.st0{fill:#333333;}
</style>
<g>
	<path class="st0" d="M5.4,3.7L2.3,6.8c0,0-0.1,0.1-0.2,0.1C2.1,6.8,2,6.8,2,6.8L1.6,6.4c0,0-0.1-0.1-0.1-0.2c0-0.1,0-0.1,0.1-0.2
		l2.6-2.6L1.6,0.9c0,0-0.1-0.1-0.1-0.2s0-0.1,0.1-0.2L2,0.2c0,0,0.1-0.1,0.2-0.1c0.1,0,0.1,0,0.2,0.1l3.1,3.1c0,0,0.1,0.1,0.1,0.2
		S5.4,3.6,5.4,3.7z"/>
</g>
</svg>
