<?xml version="1.0" encoding="utf-8"?>
<!-- Generator: Adobe Illustrator 24.0.2, SVG Export Plug-In . SVG Version: 6.00 Build 0)  -->
<svg version="1.1" id="Layer_1" xmlns="http://www.w3.org/2000/svg" xmlns:xlink="http://www.w3.org/1999/xlink" x="0px" y="0px"
	 width="25px" height="25px" viewBox="0 0 25 25" style="enable-background:new 0 0 25 25;" xml:space="preserve">
<style type="text/css">
	.st0{fill:#DC0303;}
</style>
<g>
	<path class="st0" d="M18.2,2.8c1.7,1,3,2.3,4,4c1,1.8,1.5,3.7,1.5,5.7c0,2-0.5,3.9-1.5,5.7c-1,1.7-2.3,3-4,4
		c-1.8,1-3.7,1.5-5.7,1.5s-3.9-0.5-5.7-1.5c-1.7-1-3-2.3-4-4c-1-1.8-1.6-3.7-1.6-5.7c0-2,0.5-3.9,1.6-5.7c1-1.7,2.3-3,4-4
		c1.8-1,3.7-1.6,5.7-1.6S16.4,1.8,18.2,2.8z M7.8,4.4C6.3,5.2,5.2,6.3,4.4,7.8c-0.9,1.5-1.3,3-1.3,4.7s0.4,3.3,1.3,4.7
		c0.8,1.4,1.9,2.5,3.3,3.3c1.5,0.9,3,1.3,4.7,1.3s3.3-0.4,4.7-1.3c1.4-0.8,2.5-1.9,3.3-3.3c0.9-1.5,1.3-3,1.3-4.7s-0.4-3.3-1.3-4.7
		c-0.8-1.4-1.9-2.5-3.3-3.3c-1.5-0.9-3-1.3-4.7-1.3S9.2,3.6,7.8,4.4z M13.4,6.9v7.5h-1.9V6.9H13.4z M13.4,16.3v1.9h-1.9v-1.9H13.4z"
		/>
</g>
</svg>
