<?xml version="1.0" encoding="utf-8"?>
<!-- Generator: Adobe Illustrator 24.0.2, SVG Export Plug-In . SVG Version: 6.00 Build 0)  -->
<svg version="1.1" id="Layer_1" xmlns="http://www.w3.org/2000/svg" xmlns:xlink="http://www.w3.org/1999/xlink" x="0px" y="0px"
	 width="25px" height="25px" viewBox="0 0 25 25" style="enable-background:new 0 0 25 25;" xml:space="preserve">
<style type="text/css">
	.st0{fill:#E96E00;}
</style>
<g>
	<path class="st0" d="M14.1,2.3c2,2,3.7,4,5,5.8c1.9,2.7,2.8,5.1,2.8,7c0,1.5-0.4,2.9-1.3,4.2c-0.8,1.3-1.9,2.3-3.4,3
		c-1.4,0.8-3,1.1-4.7,1.1s-3.3-0.4-4.7-1.1c-1.4-0.8-2.5-1.8-3.4-3c-0.9-1.3-1.3-2.7-1.3-4.2c0-2.9,1.6-6.3,4.9-10l0.7-0.8l1.7,1.7
		l2.8-4.7L14.1,2.3z M10.8,9.2l-2-2C7.6,8.6,6.6,10.1,6,11.4c-0.6,1.4-1,2.6-1,3.7c0,1.1,0.3,2.1,0.9,3.1c0.6,1,1.4,1.7,2.4,2.3
		c-0.3-0.7-0.4-1.5-0.4-2.2c0-1.5,0.6-3.1,1.7-5l0.6-1l1.3,1.3l2.1-3.1l0.8,1.1c0.8,1.1,1.5,2.2,1.9,3.2c0.6,1.3,1,2.5,1,3.5
		c0,0.7-0.1,1.5-0.4,2.2c1-0.6,1.8-1.4,2.4-2.3c0.6-1,0.9-2,0.9-3.1c0-1.5-0.8-3.4-2.3-5.7c-1.1-1.6-2.4-3.2-4.1-5L10.8,9.2z
		 M11.7,16.6l-1.2-1.2c-0.5,1.1-0.8,2.1-0.8,3c0,0.6,0.1,1.2,0.4,1.7c0.3,0.5,0.6,0.9,1,1.2c0.4,0.3,0.9,0.5,1.4,0.5s1-0.2,1.4-0.5
		c0.4-0.3,0.8-0.7,1-1.2c0.3-0.5,0.4-1.1,0.4-1.7c0-1.2-0.6-2.6-1.8-4.5L11.7,16.6z"/>
</g>
</svg>
