<?xml version="1.0" encoding="utf-8"?>
<!-- Generator: Adobe Illustrator 24.0.2, SVG Export Plug-In . SVG Version: 6.00 Build 0)  -->
<svg version="1.1" id="Layer_1" xmlns="http://www.w3.org/2000/svg" xmlns:xlink="http://www.w3.org/1999/xlink" x="0px" y="0px"
	 width="20px" height="20px" viewBox="0 0 20 20" style="enable-background:new 0 0 20 20;" xml:space="preserve">
<style type="text/css">
	.st0{fill:#FFF;}
</style>
<g>
	<path class="st0" d="M18.5,7.4c-0.9-1.6-2.6-2.6-4.5-2.6c-0.3,0-0.6,0.3-0.6,0.6c0,0.3,0.3,0.6,0.6,0.6c2.2,0,3.9,1.8,3.9,3.9
		c0,2.2-1.8,3.9-3.9,3.9h-3.3l1.4-1.5c0.2-0.2,0.2-0.4,0.2-0.6c-0.1-0.2-0.2-0.4-0.5-0.4c-0.2-0.1-0.5,0-0.6,0.2l-2.5,2.6
		c-0.2,0.2-0.2,0.6,0,0.9l2.5,2.6c0.1,0.1,0.3,0.2,0.5,0.2c0.2,0,0.3-0.1,0.4-0.2c0.2-0.2,0.3-0.6,0-0.9l-1.5-1.6H14c0,0,0,0,0,0
		c1.8,0,3.6-1,4.5-2.6C19.4,11,19.4,9,18.5,7.4z"/>
	<path class="st0" d="M11.3,5.8c0.2-0.2,0.2-0.6,0-0.9L8.8,2.3C8.7,2.2,8.5,2.2,8.3,2.2C8.2,2.2,8,2.2,7.9,2.3
		C7.8,2.4,7.7,2.6,7.7,2.8c0,0.2,0.1,0.3,0.2,0.4l1.5,1.5H6c-2.9,0-5.2,2.3-5.2,5.2s2.3,5.2,5.2,5.2c0.3,0,0.6-0.3,0.6-0.6
		c0-0.3-0.3-0.6-0.6-0.6c-2.2,0-3.9-1.8-3.9-3.9S3.9,6,6,6h3.3L7.9,7.5C7.7,7.7,7.7,7.9,7.7,8.1C7.8,8.4,8,8.5,8.2,8.6
		c0.2,0.1,0.5,0,0.6-0.2L11.3,5.8z"/>
</g>
</svg>
