<svg width="41" height="29.999999999999996" xmlns="http://www.w3.org/2000/svg" version="1.1" xml:space="preserve">
 <!--    <metadata id="metadata8"><rdf:RDF><cc:Work
         rdf:about=""><dc:format>image/svg+xml</dc:format><dc:type
        rdf:resource="http://purl.org/dc/dcmitype/StillImage"/></cc:Work></rdf:RDF></metadata>-->
 <defs id="defs6">
  <clipPath clipPathUnits="userSpaceOnUse" id="clipPath46">
   <path d="m0,288.199l0,0l288.199,0l0,-288.199l-288.199,0l0,288.199z" id="path44"/>
  </clipPath>
 </defs>
 <g>
  <title>Layer 1</title>
  <g id="g10" transform="matrix(0.104274 0 0 -0.104421 -1.36825 18.094)">
   <g id="g12">
    <path fill="#28a1eb" fill-rule="nonzero" d="m354.34601,172.99939l-118.993,-287l49.196,0l118.992,287l-49.195,0z" id="path14"/>
   </g>
   <g id="g16">
    <path fill="#28a1eb" fill-rule="nonzero" d="m134.70102,172.99939l-118.99,-287l49.193,0l118.993,287l-49.196,0z" id="path18"/>
   </g>
   <g id="g20">
    <path fill="#28a1eb" fill-rule="nonzero" d="m228.33413,47.99968l-67.943,-162l49.195,0l67.943,162l-49.195,0z" id="path22"/>
   </g>
   <g id="g24">
    <path fill="#28a1eb" fill-rule="nonzero" d="m86.20723,-114.00033l49.195,0l67.946,162l-49.196,0l-67.945,-162z" id="path26"/>
   </g>
  </g>
 </g>
</svg>