<?xml version="1.0" encoding="utf-8"?>
<!-- Generator: Adobe Illustrator 24.0.2, SVG Export Plug-In . SVG Version: 6.00 Build 0)  -->
<svg version="1.1" id="Layer_1" xmlns="http://www.w3.org/2000/svg" xmlns:xlink="http://www.w3.org/1999/xlink" x="0px" y="0px"
	 width="20px" height="20px" viewBox="0 0 20 20" style="enable-background:new 0 0 20 20;" xml:space="preserve">
<style type="text/css">
	.st0{fill:#3D3D3D;}
</style>
<g>
	<path class="st0" d="M4.1,8.1C3,8.1,2.2,9,2.2,10s0.8,1.9,1.9,1.9c1,0,1.9-0.8,1.9-1.9S5.1,8.1,4.1,8.1z"/>
	<path class="st0" d="M16.2,8.1c-1,0-1.9,0.8-1.9,1.9s0.8,1.9,1.9,1.9s1.9-0.8,1.9-1.9S17.3,8.1,16.2,8.1z"/>
	<path class="st0" d="M10.1,8.1c-1,0-1.9,0.8-1.9,1.9s0.8,1.9,1.9,1.9c1,0,1.9-0.8,1.9-1.9S11.2,8.1,10.1,8.1z"/>
</g>
</svg>
