<?xml version="1.0" encoding="utf-8"?>
<!-- Generator: Adobe Illustrator 24.0.2, SVG Export Plug-In . SVG Version: 6.00 Build 0)  -->
<svg version="1.1" id="Layer_1" xmlns="http://www.w3.org/2000/svg" xmlns:xlink="http://www.w3.org/1999/xlink" x="0px" y="0px"
	 width="25px" height="25px" viewBox="0 0 25 25" style="enable-background:new 0 0 25 25;" xml:space="preserve">
<style type="text/css">
	.st0{fill:#16A835;}
</style>
<g>
	<path class="st0" d="M16.7,2.4c1.3,0.8,2.3,1.8,3,3c0.8,1.3,1.1,2.7,1.1,4.2c0,1.6-0.6,3.4-1.9,5.3c-0.9,1.3-1.8,2.4-2.8,3.3v2.7
		c0,0.5-0.2,0.9-0.6,1.3c-0.4,0.4-0.8,0.6-1.3,0.6l-0.9,0.9h-1.9l-0.9-0.9c-0.5,0-0.9-0.2-1.3-0.6c-0.4-0.4-0.6-0.8-0.6-1.3v-2.7
		c-1-0.8-2-1.9-2.8-3.3c-1.3-1.9-1.9-3.7-1.9-5.3c0-1.5,0.4-2.9,1.1-4.2c0.8-1.3,1.8-2.3,3-3c1.3-0.8,2.7-1.1,4.2-1.1
		S15.4,1.6,16.7,2.4z M9.2,4c-1,0.6-1.8,1.4-2.4,2.4c-0.6,1-0.9,2.1-0.9,3.3c0,0.6,0.1,1.3,0.4,2.1S7,13.3,7.5,14
		c0.4,0.6,0.9,1.2,1.4,1.8s1.1,1,1.6,1.4h4c0.5-0.4,1.1-0.8,1.6-1.4s1-1.2,1.4-1.8c0.5-0.7,0.9-1.5,1.1-2.3s0.4-1.4,0.4-2.1
		c0-1.2-0.3-2.3-0.9-3.3c-0.6-1-1.4-1.8-2.4-2.4s-2.1-0.9-3.3-0.9S10.2,3.4,9.2,4z M10.6,19.2v1.8h3.8v-1.8c-0.1,0-0.2-0.1-0.2-0.1
		h-3.3C10.8,19.1,10.7,19.1,10.6,19.2z"/>
</g>
</svg>
