<?xml version="1.0" encoding="utf-8"?>
<!-- Generator: Adobe Illustrator 24.0.2, SVG Export Plug-In . SVG Version: 6.00 Build 0)  -->
<svg version="1.1" id="Layer_1" xmlns="http://www.w3.org/2000/svg" xmlns:xlink="http://www.w3.org/1999/xlink" x="0px" y="0px"
	 width="10px" height="6px" viewBox="0 0 10 6" style="enable-background:new 0 0 10 6;" xml:space="preserve">
<style type="text/css">
	.st0{fill:#333333;}
</style>
<g>
	<path class="st0" d="M9.9,1.1L5.2,5.8C5.2,5.9,5.1,5.9,5,5.9s-0.2,0-0.2-0.1L0.1,1.1C0,1.1,0,1,0,0.9s0-0.2,0.1-0.2l0.5-0.5
		c0.1-0.1,0.1-0.1,0.2-0.1c0.1,0,0.2,0,0.2,0.1L5,4.1l3.9-3.9C9,0.1,9.1,0.1,9.2,0.1c0.1,0,0.2,0,0.2,0.1l0.5,0.5
		C10,0.7,10,0.8,10,0.9S10,1.1,9.9,1.1z"/>
</g>
</svg>
